HIERARCHY
ROOT Spine
{
    OFFSET 0.0 0.0 -0.0
    CHANNELS 6 Xposition Yposition Zposition Zrotation Xrotation Yrotation
    JOINT ShoulderCenter
    {
        OFFSET 0.0 28.43004608154297 0.0
        CHANNELS 3 Zrotation Xrotation Yrotation
        JOINT LeftShoulder
        {
            OFFSET 18.397415161132812 0.0 0.0
            CHANNELS 3 Zrotation Xrotation Yrotation
            JOINT LeftElbow
            {
                OFFSET 29.94125747680664 0.0 0.0
                CHANNELS 3 Zrotation Xrotation Yrotation
                JOINT LeftHand
                {
                    OFFSET 31.694618225097656 0.0 0.0
                    CHANNELS 3 Zrotation Xrotation Yrotation
                    End Site
                    {
                        OFFSET 12.677848815917969 0.0 0.0
                    }
                }
            }
        }
        JOINT RightShoulder
        {
            OFFSET -18.397415161132812 0.0 0.0
            CHANNELS 3 Zrotation Xrotation Yrotation
            JOINT RightElbow
            {
                OFFSET -29.94125747680664 0.0 0.0
                CHANNELS 3 Zrotation Xrotation Yrotation
                JOINT RightHand
                {
                    OFFSET -31.694618225097656 0.0 0.0
                    CHANNELS 3 Zrotation Xrotation Yrotation
                    End Site
                    {
                        OFFSET -12.677848815917969 0.0 0.0
                    }
                }
            }
        }
        End Site
        {
            OFFSET 0.0 11.372017860412598 0.0
        }
    }
    JOINT LeftHip
    {
        OFFSET 15.818463471566387 -15.818463471566387 0.0
        CHANNELS 3 Zrotation Xrotation Yrotation
        JOINT LeftKnee
        {
            OFFSET 0.0 -39.31314468383789 0.0
            CHANNELS 3 Zrotation Xrotation Yrotation
            JOINT LeftFoot
            {
                OFFSET 0.0 -44.555747985839844 0.0
                CHANNELS 3 Zrotation Xrotation Yrotation
                End Site
                {
                    OFFSET 0.0 0.0 17.822301864624023
                }
            }
        }
    }
    JOINT RightHip
    {
        OFFSET -15.818463471566387 -15.818463471566387 0.0
        CHANNELS 3 Zrotation Xrotation Yrotation
        JOINT RightKnee
        {
            OFFSET 0.0 -39.31314468383789 0.0
            CHANNELS 3 Zrotation Xrotation Yrotation
            JOINT RightFoot
            {
                OFFSET 0.0 -44.555747985839844 0.0
                CHANNELS 3 Zrotation Xrotation Yrotation
                End Site
                {
                    OFFSET 0.0 0.0 17.822301864624023
                }
            }
        }
    }
}
MOTION
Frames: 9
Frame Time: 0.03333333333333333
4.800000190734863 8.100000381469727 51.70000076293945 -3.2358926203012706 -2.8275985191035446 -1.0443731684116109 1.9450575796018307e-08 -1.1224742851730466e-08 -0.6245592857964424 88.52328712209291 39.47226167060099 179.24441448413077 -9.722438308506004e-07 -1.2542416768307004e-06 23.615311970151925 2.3854160110976376e-15 3.975693351829396e-15 -4.770832022195275e-15 -83.65635203471312 55.27156514050171 178.71530755190892 1.0479875061611154e-06 6.468036771196225e-06 -22.203637166145402 9.54166404439055e-15 -1.590277340731758e-15 3.1805546814635168e-15 7.932441396908016 16.560972841850493 -53.107552251688524 12.040184263350518 -12.695108740124 45.92951892146937 3.9756933518293955e-16 2.4848083448933722e-17 3.478731682850721e-16 0.6730065797654334 9.960128486759135 20.340298926778686 -5.26789088292018 -11.84214093565602 -19.76594608154319 3.975693351829396e-16 -7.951386703658792e-16 -4.969616689786745e-17
4.699999809265137 8.0 51.70000076293945 -3.437665700937787 -2.827018893115288 -1.6204398644824645 -2.558782996879646e-08 -2.530292590391359e-07 -0.05890935910943214 88.7526202098749 39.42975030917975 179.22758145419013 -1.7522632253490562e-06 -1.7778436427860757e-06 23.61034608408516 7.951386703658792e-15 -3.975693351829396e-15 -3.1805546814635164e-15 -83.65916002767746 54.7846717168991 178.73149302512317 1.4020036820547133e-06 -4.442814653787405e-06 -21.832038504022357 -4.770832022195275e-15 7.951386703658792e-15 -3.1805546814635164e-15 8.103260903364257 16.42321952150762 -52.00474968342488 11.863493686469909 -12.749503144846347 46.57663481677604 -3.975693351829395e-16 -5.129441889335634e-33 1.4784609652115563e-15 0.9377047185897718 9.40710033445564 18.695120158047185 -4.755486241873018 -11.440777530183338 -18.892118513230077 0.0 0.0 -4.969616689786745e-17
4.699999809265137 8.0 51.599998474121094 -3.6393527670616823 -2.8264127775370613 -1.6441724974796061 2.072150430394416e-07 2.513701330664189e-07 0.12059750189646541 88.95497360914003 38.93033530022837 179.22050914846207 9.756455001420596e-07 -3.1246282862513757e-06 23.50972649816043 1.5902773407317588e-15 3.310429723537619e-32 2.3854160110976384e-15 -83.15433976343675 55.293096379316054 178.37259663857932 3.4060473157572876e-06 -2.6348821462303004e-06 -21.800621868763443 -1.5902773407317584e-15 -1.5902773407317584e-15 3.1805546814635168e-15 8.320758323008642 16.168028771544158 -51.41783158638658 11.815392733472946 -12.772920658556275 47.737481616760824 -1.4655548255244668e-33 -7.951386703658791e-16 -2.1120870931593662e-16 1.1386634623596918 9.15119638296645 18.01896723384314 -4.695277202121923 -11.33296953818949 -19.00975778490266 0.0 0.0 -2.4848083448933725e-17
4.699999809265137 8.0 51.599998474121094 -3.840949592247162 -2.8257637550334036 -1.6896076063780179 9.566258444148795e-08 2.5931037983665177e-07 0.6486252509795534 89.46574254577935 36.0979256588935 178.98075140144948 -1.9929463934270012e-06 -1.2502825267779373e-06 23.91218223130598 3.578124016646457e-15 -9.931289170612858e-32 -3.1805546814635168e-15 -82.54243608843115 56.62666778463191 177.89964050010155 -3.4478803216272314e-06 -5.356166485993998e-06 -21.540141090477928 1.590277340731758e-15 4.4139062980501586e-32 3.180554681463516e-15 8.350965532252081 15.696048114530281 -48.922140828830535 11.213369892512024 -12.816530480871448 47.47031839192206 0.0 0.0 -8.821069624371472e-16 1.34817925525995 8.865443339273147 16.854098564033855 -4.676472221540235 -11.208923630035995 -19.17653459202273 -1.616420763446103e-35 -1.2424041724466862e-17 -1.4908850069360235e-16
4.699999809265137 8.0 51.599998474121094 -3.840949592247162 -2.8257637550334036 -1.6896076063780179 2.5150290169262317e-07 -7.294430926628851e-09 0.4908865307098094 89.46466293748695 36.255677813149234 178.98258993011675 2.247110284664277e-06 2.9043193772986354e-07 23.912170728046103 -6.3611093629270335e-15 3.1805546814635168e-15 1.5902773407317584e-15 -82.62064139694654 55.73109298040932 177.9759582000087 -1.4666053878560883e-07 3.516488957992877e-06 -21.551844049977646 1.5902773407317582e-15 0.0 0.0 8.509342528753619 15.696582791740473 -49.2417255814296 11.007993282995132 -13.089464861070514 47.792439906331445 0.0 0.0 1.1181637552020177e-16 1.34817925525995 8.865443339273147 16.854098564033855 -4.676472221540235 -11.208923630035995 -19.17653459202273 -1.616420763446103e-35 -1.2424041724466862e-17 -1.4908850069360235e-16
4.699999809265137 8.0 51.70000076293945 -3.626572800163662 -3.0173414651485704 -1.6286704302553208 -2.2548022725291722e-08 3.960684193694783e-07 0.4219243961887223 89.36242851495265 36.31750353762595 178.759173215493 -1.6177704697838717e-06 4.311150886315698e-06 23.916426544644146 9.144094709207609e-15 0.0 0.0 -83.09998865074185 56.0117505542012 178.29768524449244 2.8989483031597838e-06 -4.8419892019313065e-06 -21.69947097339012 6.361109362927031e-15 -3.531125038440127e-31 -6.361109362927031e-15 8.321402742846015 16.055833036432386 -50.2574489701512 11.496548771907982 -12.809490545767796 48.636813875327604 -4.4451570994767834e-35 -1.2424041724466862e-17 -4.0999337690740647e-16 1.2646704188376225 9.345746414253297 16.970303150015834 -4.78811571757787 -11.464027933902829 -19.25019585520299 3.975693351829396e-16 6.896728590703373e-34 1.987846675914698e-16
4.699999809265137 8.0 51.70000076293945 -3.6265727531463514 -2.8165086311581264 -1.3557910139175067 3.6533935516993827e-07 6.8729312205168e-09 0.16602460396209023 89.08195004060163 36.55873541786302 179.25193856659442 -1.508232767223459e-06 2.95851466441055e-07 23.754083157014495 -1.1927080055488192e-15 3.975693351829397e-15 -7.951386703658794e-16 -82.79969116198899 55.96505527655213 177.9396116396573 -1.3585080585669145e-07 -4.752896987264655e-06 -21.77050824173595 0.0 0.0 0.0 8.382024805047827 15.783489962672622 -50.42809193955731 11.287143728160823 -12.822886100449029 48.16499147293943 0.0 -1.2424041724466861e-17 0.0 1.3159128490755798 9.26203429220154 17.253442173334733 -4.790606255511132 -11.458861266437633 -19.057314769032256 3.975693351829396e-16 -6.034637516865451e-34 -1.7393658414253607e-16
4.699999809265137 8.0 51.70000076293945 -3.6265727531463514 -2.8165086311581264 -1.3557910139175067 2.56838519915099e-07 -3.4309406642580234e-08 0.00790662627986261 89.21038142873441 36.11488888135545 179.01503475902797 -3.93458908507458e-06 -1.7322925959410505e-06 23.821910815363573 6.3611093629270335e-15 -3.1805546814635168e-15 -3.975693351829396e-15 -82.82888992969592 55.808180033732576 177.97487773506768 -1.3585080585669145e-07 -4.752896987264655e-06 -21.77050824173595 0.0 0.0 0.0 8.395392119628262 15.817532973181676 -50.507869451409455 11.213503564592251 -12.756475636575937 47.78180689652254 0.0 0.0 -1.6151254241806922e-16 1.3159128490755798 9.26203429220154 17.253442173334733 -4.790606255511132 -11.458861266437633 -19.057314769032256 3.975693351829396e-16 -6.034637516865451e-34 -1.7393658414253607e-16
4.699999809265137 8.0 51.70000076293945 -3.6265727531463514 -2.8165086311581264 -1.3557910139175067 2.56838519915099e-07 -3.4309406642580234e-08 0.00790662627986261 89.20534658735838 35.8777564272087 179.01799304945652 -3.1049207177445007e-06 -3.4157468509992097e-06 23.94687533371184 5.9635400277440935e-15 -3.1805546814635168e-15 2.3854160110976376e-15 -82.57236536220569 57.00605422881011 177.91722988605008 1.9017766595348474e-06 5.448615718753008e-07 -22.13625821069571 1.5902773407317588e-15 8.827812596100317e-32 6.361109362927035e-15 8.395392119628262 15.817532973181676 -50.507869451409455 11.313258294525454 -12.836847240918111 48.21637404587819 -3.9756933518293955e-16 4.310455369189608e-35 -1.2424041724466861e-17 1.3159128490755798 9.26203429220154 17.253442173334733 -4.915769549699526 -11.421786632764896 -19.090295058307735 0.0 0.0 0.0
